<svg width="16" height="16" viewBox="0 0 16 16" fill="none" xmlns="http://www.w3.org/2000/svg">
<path d="M8.34708 1.00046C8.52489 1.01403 8.69083 1.09414 8.81192 1.22507C8.93308 1.35611 9.00086 1.52805 9.0004 1.70651V12.5424C8.88518 12.4679 8.75988 12.4075 8.62637 12.3647C8.69936 12.2136 8.74053 12.0472 8.74063 11.8764C8.74048 10.8318 8.05855 10.0784 7.61075 9.56686C7.33917 9.25597 7.10713 8.98104 6.91837 8.73581C7.10701 8.49093 7.33975 8.21764 7.61172 7.90671L7.97696 7.47702C8.35739 7.00017 8.7404 6.37968 8.74063 5.59616C8.74063 5.33566 8.6493 5.08408 8.48575 4.88425L8.41153 4.80222L8.3295 4.72702C8.12963 4.56317 7.8773 4.47318 7.61661 4.47311H4.52774L7.8002 1.19968C7.87015 1.12737 7.95573 1.07217 8.0502 1.03757C8.14489 1.00292 8.24676 0.990285 8.34708 1.00046ZM1.29434 5.32468C1.27241 5.41267 1.26016 5.5039 1.26016 5.59616C1.26047 6.64019 1.94004 7.39391 2.38809 7.90573V7.90671C2.65984 8.21779 2.89283 8.49113 3.08145 8.73581C2.89255 8.98137 2.66009 9.25591 2.38809 9.56686C2.10667 9.88835 1.73293 10.3048 1.49454 10.8296C1.19623 10.6502 1.00055 10.3465 1.0004 10.0005V6.00046C1.0004 5.73952 1.11181 5.50252 1.29434 5.32468ZM7.51309 10.3794C7.56574 10.4456 7.61636 10.5138 7.66544 10.5825C7.59758 10.4875 7.52452 10.3956 7.45059 10.3051C7.47101 10.3301 7.49302 10.3541 7.51309 10.3794ZM6.17911 8.73679C6.29911 8.91891 6.44536 9.11129 6.61075 9.31491C6.77625 9.51871 6.96181 9.73486 7.16055 9.96237C7.18247 9.98743 7.20301 10.0142 7.22501 10.0395C7.20287 10.0141 7.18164 9.98759 7.15958 9.96237C6.7619 9.50714 6.41836 9.10054 6.17813 8.73581L6.17911 8.73679Z" fill="#E0E0E0"/>
<path d="M12.151 2.07419C12.386 1.88192 12.733 1.91652 12.9254 2.15134C15.3118 5.06793 15.3159 8.01245 14.7174 10.207C14.4374 11.2337 14.0258 12.0954 13.6706 12.7197L12.8864 12.2675L12.7165 12.1689C13.0371 11.6045 13.4076 10.832 13.6569 9.91794C14.1834 7.98754 14.1874 5.43191 12.0739 2.8486C11.8818 2.61362 11.9163 2.26655 12.151 2.07419ZM10.1413 4.082C10.3718 3.88438 10.7199 3.91115 10.9176 4.14157C12.5614 6.05928 12.5689 8.0116 12.154 9.46384C11.9493 10.1802 11.643 10.7728 11.3903 11.1855C11.2635 11.3926 11.1487 11.557 11.0641 11.6709C11.0219 11.7277 10.9867 11.7723 10.9616 11.8037C10.9491 11.8193 10.9388 11.8318 10.9313 11.8408C10.9276 11.8453 10.9249 11.8497 10.9225 11.8525L10.9176 11.8574C10.9152 11.8557 10.8855 11.8307 10.4997 11.5L10.9176 11.8584C10.7199 12.0888 10.3718 12.1156 10.1413 11.9179C9.91092 11.7203 9.88519 11.3721 10.0827 11.1416C10.0832 11.1409 10.0838 11.1397 10.0846 11.1386C10.0882 11.1343 10.0948 11.1266 10.1032 11.1162C10.1204 11.0947 10.1475 11.0601 10.1813 11.0146C10.249 10.9235 10.3453 10.7868 10.4528 10.6113C10.6688 10.2584 10.9251 9.7571 11.0954 9.1611C11.4304 7.98837 11.4378 6.44057 10.0817 4.85837C9.88422 4.62782 9.91091 4.27968 10.1413 4.082Z" fill="#E0E0E0"/>
<path d="M2.3828 5.07318C2.24398 5.07318 2.11086 5.12832 2.0127 5.22648C1.91455 5.32463 1.85941 5.45776 1.85941 5.59657C1.85941 6.38166 2.36552 6.97047 2.83971 7.51218C3.23749 7.96753 3.58083 8.37211 3.82107 8.73691C3.58083 9.10171 3.23801 9.50734 2.83971 9.96269C2.36552 10.5044 1.85941 11.0922 1.85941 11.8772C1.85941 12.0161 1.91455 12.1492 2.0127 12.2473C2.11086 12.3455 2.24398 12.4006 2.3828 12.4006H7.61669C7.75551 12.4006 7.88863 12.3455 7.98679 12.2473C8.08494 12.1492 8.14008 12.0161 8.14008 11.8772C8.14008 11.0922 7.63397 10.5044 7.15977 9.96269C6.762 9.50734 6.41865 9.10171 6.17842 8.73691C6.41865 8.37211 6.76148 7.96753 7.15977 7.51218C7.63397 6.97047 8.14008 6.38166 8.14008 5.59657C8.14008 5.45776 8.08494 5.32463 7.98679 5.22648C7.88863 5.12832 7.75551 5.07318 7.61669 5.07318H2.3828ZM6.78555 6.11996C6.66098 6.35025 6.62592 6.53344 6.3726 6.82235C5.93086 7.3269 5.3792 7.85447 5.0547 8.50243C5.0184 8.57526 4.99959 8.65554 4.99974 8.73691C4.99966 8.65568 4.98066 8.57558 4.94427 8.50295C4.62029 7.85447 4.06863 7.3269 3.62689 6.82235C3.37357 6.53292 3.33851 6.35078 3.21342 6.11996H6.78555Z" fill="#E0E0E0"/>
<path d="M14.6363 13.8543L12.6363 15.0086V14.2791H9.12747C8.96326 14.6565 8.58786 14.9207 8.14993 14.9207C7.71215 14.9206 7.33741 14.6564 7.17337 14.2791H3.24759L2.5181 15.0086L1.3638 13.8543L2.5181 12.7L3.24759 13.4295H7.17337C7.3374 13.0521 7.71213 12.788 8.14993 12.7879C8.58788 12.7879 8.96327 13.0521 9.12747 13.4295H12.6363V12.7L14.6363 13.8543Z" fill="#E0E0E0"/>
</svg>
